<mxfile host="65bd71144e">
    <diagram id="BSCIQS46nkcK8EYovxv_" name="Page-1">
        <mxGraphModel dx="1563" dy="2040" grid="1" gridSize="10" guides="1" tooltips="1" connect="1" arrows="1" fold="1" page="1" pageScale="1" pageWidth="850" pageHeight="1100" background="#ffffff" math="0" shadow="0">
            <root>
                <mxCell id="0"/>
                <mxCell id="1" parent="0"/>
                <mxCell id="3" value="&lt;font style=&quot;font-size: 18px;&quot;&gt;S&lt;/font&gt;" style="text;html=1;align=center;verticalAlign=middle;whiteSpace=wrap;rounded=0;strokeColor=#000000;fontColor=#000000;" vertex="1" parent="1">
                    <mxGeometry x="190" y="215" width="60" height="40" as="geometry"/>
                </mxCell>
                <mxCell id="4" value="&lt;font style=&quot;font-size: 18px;&quot;&gt;V&lt;/font&gt;" style="text;html=1;align=center;verticalAlign=middle;whiteSpace=wrap;rounded=0;strokeColor=#000000;fontColor=#000000;" vertex="1" parent="1">
                    <mxGeometry x="375" y="-85" width="60" height="40" as="geometry"/>
                </mxCell>
                <mxCell id="5" value="" style="endArrow=classic;html=1;fontSize=18;exitX=1;exitY=0;exitDx=0;exitDy=0;entryX=0;entryY=1;entryDx=0;entryDy=0;endSize=10;startSize=6;fontColor=#000000;strokeColor=#000000;" edge="1" parent="1" source="3" target="4">
                    <mxGeometry width="50" height="50" relative="1" as="geometry">
                        <mxPoint x="400" y="220" as="sourcePoint"/>
                        <mxPoint x="450" y="170" as="targetPoint"/>
                    </mxGeometry>
                </mxCell>
                <mxCell id="6" value="&lt;font style=&quot;font-size: 18px;&quot;&gt;D&lt;/font&gt;" style="text;html=1;align=center;verticalAlign=middle;whiteSpace=wrap;rounded=0;strokeColor=#000000;fontColor=#000000;" vertex="1" parent="1">
                    <mxGeometry x="690" y="-80" width="60" height="30" as="geometry"/>
                </mxCell>
                <mxCell id="7" value="" style="endArrow=classic;html=1;fontSize=18;startSize=6;endSize=10;entryX=0;entryY=0.5;entryDx=0;entryDy=0;exitX=1;exitY=0.5;exitDx=0;exitDy=0;fontColor=#000000;strokeColor=#000000;" edge="1" parent="1" source="4" target="6">
                    <mxGeometry width="50" height="50" relative="1" as="geometry">
                        <mxPoint x="410" y="35" as="sourcePoint"/>
                        <mxPoint x="460" y="-15" as="targetPoint"/>
                    </mxGeometry>
                </mxCell>
                <mxCell id="8" value="&lt;font style=&quot;font-size: 18px;&quot;&gt;S&lt;/font&gt;" style="text;html=1;align=center;verticalAlign=middle;whiteSpace=wrap;rounded=0;strokeColor=#000000;fontColor=#000000;" vertex="1" parent="1">
                    <mxGeometry x="410" y="210" width="60" height="47.5" as="geometry"/>
                </mxCell>
                <mxCell id="9" value="&lt;font style=&quot;font-size: 18px;&quot;&gt;B&lt;/font&gt;" style="text;html=1;align=center;verticalAlign=middle;whiteSpace=wrap;rounded=0;strokeColor=#000000;fontColor=#000000;" vertex="1" parent="1">
                    <mxGeometry x="800" y="208.75" width="60" height="45" as="geometry"/>
                </mxCell>
                <mxCell id="10" value="&lt;span style=&quot;font-size: 18px;&quot;&gt;T&lt;/span&gt;" style="text;html=1;align=center;verticalAlign=middle;whiteSpace=wrap;rounded=0;strokeColor=#000000;fontColor=#000000;" vertex="1" parent="1">
                    <mxGeometry x="1070" y="213.75" width="60" height="40" as="geometry"/>
                </mxCell>
                <mxCell id="11" value="&lt;font style=&quot;font-size: 18px;&quot;&gt;C&lt;/font&gt;" style="text;html=1;align=center;verticalAlign=middle;whiteSpace=wrap;rounded=0;strokeColor=#000000;fontColor=#000000;" vertex="1" parent="1">
                    <mxGeometry x="350" y="420" width="60" height="30" as="geometry"/>
                </mxCell>
                <mxCell id="12" value="&lt;font style=&quot;font-size: 18px;&quot;&gt;SN&lt;/font&gt;" style="text;html=1;align=center;verticalAlign=middle;whiteSpace=wrap;rounded=0;strokeColor=#000000;fontColor=#000000;" vertex="1" parent="1">
                    <mxGeometry x="810" y="420" width="60" height="30" as="geometry"/>
                </mxCell>
                <mxCell id="13" value="&lt;font style=&quot;font-size: 18px;&quot;&gt;A&lt;/font&gt;" style="text;html=1;align=center;verticalAlign=middle;whiteSpace=wrap;rounded=0;strokeColor=#000000;fontColor=#000000;" vertex="1" parent="1">
                    <mxGeometry x="365" y="630" width="60" height="30" as="geometry"/>
                </mxCell>
                <mxCell id="14" value="&lt;font style=&quot;font-size: 18px;&quot;&gt;H&lt;/font&gt;" style="text;html=1;align=center;verticalAlign=middle;whiteSpace=wrap;rounded=0;strokeColor=#000000;fontColor=#000000;" vertex="1" parent="1">
                    <mxGeometry x="685" y="630" width="60" height="30" as="geometry"/>
                </mxCell>
                <mxCell id="15" value="" style="endArrow=classic;html=1;fontSize=18;startSize=6;endSize=10;exitX=1;exitY=0.5;exitDx=0;exitDy=0;entryX=0;entryY=0.5;entryDx=0;entryDy=0;fontColor=#000000;strokeColor=#000000;" edge="1" parent="1" source="3" target="8">
                    <mxGeometry width="50" height="50" relative="1" as="geometry">
                        <mxPoint x="390" y="300" as="sourcePoint"/>
                        <mxPoint x="440" y="250" as="targetPoint"/>
                    </mxGeometry>
                </mxCell>
                <mxCell id="16" value="" style="endArrow=classic;html=1;fontSize=18;startSize=6;endSize=10;exitX=1;exitY=1;exitDx=0;exitDy=0;entryX=0;entryY=0.5;entryDx=0;entryDy=0;fontColor=#000000;strokeColor=#000000;" edge="1" parent="1" source="3" target="11">
                    <mxGeometry width="50" height="50" relative="1" as="geometry">
                        <mxPoint x="390" y="300" as="sourcePoint"/>
                        <mxPoint x="440" y="250" as="targetPoint"/>
                    </mxGeometry>
                </mxCell>
                <mxCell id="17" value="" style="endArrow=classic;html=1;fontSize=18;startSize=6;endSize=10;exitX=0.5;exitY=1;exitDx=0;exitDy=0;entryX=0.25;entryY=0;entryDx=0;entryDy=0;fontColor=#000000;strokeColor=#000000;" edge="1" parent="1" source="3" target="13">
                    <mxGeometry width="50" height="50" relative="1" as="geometry">
                        <mxPoint x="390" y="300" as="sourcePoint"/>
                        <mxPoint x="480" y="420" as="targetPoint"/>
                    </mxGeometry>
                </mxCell>
                <mxCell id="18" value="" style="endArrow=classic;html=1;fontSize=18;startSize=6;endSize=10;entryX=0;entryY=0.5;entryDx=0;entryDy=0;exitX=1;exitY=0.5;exitDx=0;exitDy=0;fontColor=#000000;strokeColor=#000000;" edge="1" parent="1" source="8" target="9">
                    <mxGeometry width="50" height="50" relative="1" as="geometry">
                        <mxPoint x="390" y="277.5" as="sourcePoint"/>
                        <mxPoint x="440" y="227.5" as="targetPoint"/>
                    </mxGeometry>
                </mxCell>
                <mxCell id="19" value="" style="endArrow=classic;html=1;fontSize=18;startSize=6;endSize=10;entryX=0;entryY=0.5;entryDx=0;entryDy=0;exitX=1;exitY=0.5;exitDx=0;exitDy=0;fontColor=#000000;strokeColor=#000000;" edge="1" parent="1" source="9" target="10">
                    <mxGeometry width="50" height="50" relative="1" as="geometry">
                        <mxPoint x="480" y="337.5" as="sourcePoint"/>
                        <mxPoint x="770" y="242.5" as="targetPoint"/>
                    </mxGeometry>
                </mxCell>
                <mxCell id="20" value="" style="endArrow=classic;html=1;fontSize=18;startSize=6;endSize=10;entryX=0.25;entryY=0;entryDx=0;entryDy=0;exitX=1;exitY=1;exitDx=0;exitDy=0;fontColor=#000000;strokeColor=#000000;" edge="1" parent="1" source="6" target="10">
                    <mxGeometry width="50" height="50" relative="1" as="geometry">
                        <mxPoint x="480" y="300" as="sourcePoint"/>
                        <mxPoint x="530" y="250" as="targetPoint"/>
                    </mxGeometry>
                </mxCell>
                <mxCell id="21" value="" style="endArrow=classic;html=1;fontSize=18;startSize=6;endSize=10;entryX=0;entryY=0.5;entryDx=0;entryDy=0;exitX=1;exitY=0.5;exitDx=0;exitDy=0;fontColor=#000000;strokeColor=#000000;" edge="1" parent="1" source="11" target="12">
                    <mxGeometry width="50" height="50" relative="1" as="geometry">
                        <mxPoint x="390" y="420" as="sourcePoint"/>
                        <mxPoint x="440" y="370" as="targetPoint"/>
                    </mxGeometry>
                </mxCell>
                <mxCell id="22" value="" style="endArrow=classic;html=1;fontSize=18;startSize=6;endSize=10;entryX=0;entryY=0.5;entryDx=0;entryDy=0;exitX=1;exitY=0.5;exitDx=0;exitDy=0;fontColor=#000000;strokeColor=#000000;" edge="1" parent="1" source="13" target="14">
                    <mxGeometry width="50" height="50" relative="1" as="geometry">
                        <mxPoint x="455" y="640" as="sourcePoint"/>
                        <mxPoint x="445" y="500" as="targetPoint"/>
                    </mxGeometry>
                </mxCell>
                <mxCell id="23" value="" style="endArrow=classic;html=1;fontSize=18;startSize=6;endSize=10;exitX=1;exitY=0.5;exitDx=0;exitDy=0;fontColor=#000000;strokeColor=#000000;entryX=0;entryY=1;entryDx=0;entryDy=0;" edge="1" parent="1" source="12" target="10">
                    <mxGeometry width="50" height="50" relative="1" as="geometry">
                        <mxPoint x="480" y="337.5" as="sourcePoint"/>
                        <mxPoint x="880" y="250" as="targetPoint"/>
                    </mxGeometry>
                </mxCell>
                <mxCell id="24" value="" style="endArrow=classic;html=1;fontSize=18;startSize=6;endSize=10;entryX=0.5;entryY=1;entryDx=0;entryDy=0;exitX=1;exitY=0.5;exitDx=0;exitDy=0;fontColor=#000000;strokeColor=#000000;" edge="1" parent="1" source="14" target="10">
                    <mxGeometry width="50" height="50" relative="1" as="geometry">
                        <mxPoint x="510" y="317.5" as="sourcePoint"/>
                        <mxPoint x="800" y="262.5" as="targetPoint"/>
                    </mxGeometry>
                </mxCell>
                <mxCell id="25" value="" style="endArrow=classic;html=1;fontSize=18;startSize=6;endSize=10;entryX=0;entryY=1;entryDx=0;entryDy=0;exitX=1;exitY=0;exitDx=0;exitDy=0;fontColor=#000000;strokeColor=#000000;" edge="1" parent="1" source="11" target="9">
                    <mxGeometry width="50" height="50" relative="1" as="geometry">
                        <mxPoint x="420" y="317.5" as="sourcePoint"/>
                        <mxPoint x="470" y="267.5" as="targetPoint"/>
                    </mxGeometry>
                </mxCell>
                <mxCell id="26" value="" style="endArrow=none;html=1;fontSize=18;startSize=6;endSize=10;entryX=0.75;entryY=0;entryDx=0;entryDy=0;exitX=0.5;exitY=1;exitDx=0;exitDy=0;fontColor=#000000;strokeColor=#000000;startArrow=classic;startFill=1;endFill=0;targetPerimeterSpacing=8;" edge="1" parent="1" source="9" target="13">
                    <mxGeometry width="50" height="50" relative="1" as="geometry">
                        <mxPoint x="420" y="317.5" as="sourcePoint"/>
                        <mxPoint x="470" y="267.5" as="targetPoint"/>
                    </mxGeometry>
                </mxCell>
                <mxCell id="27" value="" style="endArrow=classic;html=1;fontSize=18;startSize=6;endSize=10;exitX=1;exitY=1;exitDx=0;exitDy=0;entryX=0;entryY=0;entryDx=0;entryDy=0;fontColor=#000000;strokeColor=#000000;" edge="1" parent="1" source="4" target="9">
                    <mxGeometry width="50" height="50" relative="1" as="geometry">
                        <mxPoint x="420" y="280" as="sourcePoint"/>
                        <mxPoint x="470" y="230" as="targetPoint"/>
                    </mxGeometry>
                </mxCell>
                <mxCell id="28" value="" style="endArrow=classic;html=1;fontSize=18;startSize=6;endSize=10;exitX=0.75;exitY=1;exitDx=0;exitDy=0;entryX=0.25;entryY=0;entryDx=0;entryDy=0;fontColor=#000000;strokeColor=#000000;" edge="1" parent="1" source="4" target="12">
                    <mxGeometry width="50" height="50" relative="1" as="geometry">
                        <mxPoint x="420" y="280" as="sourcePoint"/>
                        <mxPoint x="470" y="230" as="targetPoint"/>
                    </mxGeometry>
                </mxCell>
                <mxCell id="29" value="" style="endArrow=classic;html=1;fontSize=18;startSize=6;endSize=10;entryX=0.25;entryY=1;entryDx=0;entryDy=0;exitX=0.75;exitY=0;exitDx=0;exitDy=0;fontColor=#000000;strokeColor=#000000;" edge="1" parent="1" source="8" target="6">
                    <mxGeometry width="50" height="50" relative="1" as="geometry">
                        <mxPoint x="420" y="280" as="sourcePoint"/>
                        <mxPoint x="470" y="230" as="targetPoint"/>
                    </mxGeometry>
                </mxCell>
                <mxCell id="30" value="" style="endArrow=classic;html=1;fontSize=18;startSize=6;endSize=10;entryX=0;entryY=0;entryDx=0;entryDy=0;fontColor=#000000;strokeColor=#000000;" edge="1" parent="1" source="8" target="12">
                    <mxGeometry width="50" height="50" relative="1" as="geometry">
                        <mxPoint x="420" y="317.5" as="sourcePoint"/>
                        <mxPoint x="470" y="267.5" as="targetPoint"/>
                    </mxGeometry>
                </mxCell>
                <mxCell id="31" value="" style="endArrow=classic;html=1;fontSize=18;startSize=6;endSize=10;entryX=0.25;entryY=1;entryDx=0;entryDy=0;exitX=1;exitY=0;exitDx=0;exitDy=0;fontColor=#000000;strokeColor=#000000;" edge="1" parent="1" source="13" target="12">
                    <mxGeometry width="50" height="50" relative="1" as="geometry">
                        <mxPoint x="420" y="350" as="sourcePoint"/>
                        <mxPoint x="470" y="300" as="targetPoint"/>
                    </mxGeometry>
                </mxCell>
                <mxCell id="32" value="" style="endArrow=classic;html=1;fontSize=18;startSize=6;endSize=10;entryX=0;entryY=0;entryDx=0;entryDy=0;exitX=1;exitY=1;exitDx=0;exitDy=0;fontColor=#000000;strokeColor=#000000;" edge="1" parent="1" source="11" target="14">
                    <mxGeometry width="50" height="50" relative="1" as="geometry">
                        <mxPoint x="420" y="350" as="sourcePoint"/>
                        <mxPoint x="470" y="300" as="targetPoint"/>
                    </mxGeometry>
                </mxCell>
                <mxCell id="33" value="120 &lt;strike&gt;100 70&lt;/strike&gt; / 120" style="text;html=1;align=center;verticalAlign=middle;whiteSpace=wrap;rounded=0;fontSize=18;strokeColor=#000000;fontColor=#000000;" vertex="1" parent="1">
                    <mxGeometry x="190" y="90" width="110" height="50" as="geometry"/>
                </mxCell>
                <mxCell id="35" value="100 &lt;strike&gt;70&lt;/strike&gt; / 100" style="text;html=1;align=center;verticalAlign=middle;whiteSpace=wrap;rounded=0;fontSize=18;strokeColor=#000000;fontColor=#000000;" vertex="1" parent="1">
                    <mxGeometry x="850" y="60" width="110" height="50" as="geometry"/>
                </mxCell>
                <mxCell id="44" value="80 &lt;u&gt;70 40&lt;/u&gt; / 80" style="text;html=1;align=center;verticalAlign=middle;whiteSpace=wrap;rounded=0;fontSize=18;strokeColor=#000000;fontColor=#000000;" vertex="1" parent="1">
                    <mxGeometry x="900" y="190" width="110" height="50" as="geometry"/>
                </mxCell>
                <mxCell id="45" value="30 / 30" style="text;html=1;align=center;verticalAlign=middle;whiteSpace=wrap;rounded=0;fontSize=18;strokeColor=#000000;fontColor=#000000;" vertex="1" parent="1">
                    <mxGeometry x="665" y="100" width="110" height="50" as="geometry"/>
                </mxCell>
                <mxCell id="48" value="20 / 20" style="text;html=1;align=center;verticalAlign=middle;whiteSpace=wrap;rounded=0;fontSize=18;strokeColor=#000000;fontColor=#000000;" vertex="1" parent="1">
                    <mxGeometry x="400" y="40" width="110" height="50" as="geometry"/>
                </mxCell>
                <mxCell id="51" value="30 / 50" style="text;html=1;align=center;verticalAlign=middle;whiteSpace=wrap;rounded=0;fontSize=18;strokeColor=#000000;fontColor=#000000;" vertex="1" parent="1">
                    <mxGeometry x="575" y="-40" width="110" height="50" as="geometry"/>
                </mxCell>
                <mxCell id="52" value="40 / 40" style="text;html=1;align=center;verticalAlign=middle;whiteSpace=wrap;rounded=0;fontSize=18;strokeColor=#000000;fontColor=#000000;" vertex="1" parent="1">
                    <mxGeometry x="510" y="190" width="110" height="50" as="geometry"/>
                </mxCell>
                <mxCell id="55" value="80 &lt;strike&gt;50 40&lt;/strike&gt; / 100" style="text;html=1;align=center;verticalAlign=middle;whiteSpace=wrap;rounded=0;fontSize=18;strokeColor=#000000;fontColor=#000000;" vertex="1" parent="1">
                    <mxGeometry x="270" y="190" width="110" height="50" as="geometry"/>
                </mxCell>
                <mxCell id="56" value="100 &lt;strike&gt;70&lt;/strike&gt; / 100" style="text;html=1;align=center;verticalAlign=middle;whiteSpace=wrap;rounded=0;fontSize=18;strokeColor=#000000;fontColor=#000000;" vertex="1" parent="1">
                    <mxGeometry x="290" y="290" width="110" height="50" as="geometry"/>
                </mxCell>
                <mxCell id="58" value="100 &lt;strike&gt;80 90&lt;/strike&gt; / 100" style="text;html=1;align=center;verticalAlign=middle;whiteSpace=wrap;rounded=0;fontSize=18;strokeColor=#000000;fontColor=#000000;" vertex="1" parent="1">
                    <mxGeometry x="190" y="420" width="110" height="50" as="geometry"/>
                </mxCell>
                <mxCell id="60" value="0 / 20" style="text;html=1;align=center;verticalAlign=middle;whiteSpace=wrap;rounded=0;fontSize=18;strokeColor=#000000;fontColor=#000000;" vertex="1" parent="1">
                    <mxGeometry x="435" y="330" width="110" height="50" as="geometry"/>
                </mxCell>
                <mxCell id="61" value="30 / 40" style="text;html=1;align=center;verticalAlign=middle;whiteSpace=wrap;rounded=0;fontSize=18;strokeColor=#000000;fontColor=#000000;" vertex="1" parent="1">
                    <mxGeometry x="500" y="390" width="110" height="50" as="geometry"/>
                </mxCell>
                <mxCell id="62" value="70 / 80" style="text;html=1;align=center;verticalAlign=middle;whiteSpace=wrap;rounded=0;fontSize=18;strokeColor=#000000;fontColor=#000000;" vertex="1" parent="1">
                    <mxGeometry x="370" y="470" width="110" height="50" as="geometry"/>
                </mxCell>
                <mxCell id="63" value="10 / 20" style="text;html=1;align=center;verticalAlign=middle;whiteSpace=wrap;rounded=0;fontSize=18;strokeColor=#000000;fontColor=#000000;" vertex="1" parent="1">
                    <mxGeometry x="570" y="460" width="110" height="50" as="geometry"/>
                </mxCell>
                <mxCell id="64" value="10 / 40" style="text;html=1;align=center;verticalAlign=middle;whiteSpace=wrap;rounded=0;fontSize=18;strokeColor=#000000;fontColor=#000000;" vertex="1" parent="1">
                    <mxGeometry x="500" y="580" width="110" height="50" as="geometry"/>
                </mxCell>
                <mxCell id="65" value="80 / 80" style="text;html=1;align=center;verticalAlign=middle;whiteSpace=wrap;rounded=0;fontSize=18;strokeColor=#000000;fontColor=#000000;" vertex="1" parent="1">
                    <mxGeometry x="500" y="650" width="110" height="50" as="geometry"/>
                </mxCell>
                <mxCell id="66" value="150 &lt;strike&gt;80&lt;/strike&gt; / 150" style="text;html=1;align=center;verticalAlign=middle;whiteSpace=wrap;rounded=0;fontSize=18;strokeColor=#000000;fontColor=#000000;" vertex="1" parent="1">
                    <mxGeometry x="890" y="470" width="110" height="50" as="geometry"/>
                </mxCell>
                <mxCell id="67" value="70 &lt;strike&gt;60 40 30&lt;/strike&gt; / 90" style="text;html=1;align=center;verticalAlign=middle;whiteSpace=wrap;rounded=0;fontSize=18;strokeColor=#000000;fontColor=#000000;" vertex="1" parent="1">
                    <mxGeometry x="870" y="310" width="110" height="50" as="geometry"/>
                </mxCell>
                <mxCell id="68" value="10 / 10" style="text;html=1;align=center;verticalAlign=middle;whiteSpace=wrap;rounded=0;fontSize=18;strokeColor=#000000;fontColor=#000000;" vertex="1" parent="1">
                    <mxGeometry x="530" y="255" width="110" height="50" as="geometry"/>
                </mxCell>
                <mxCell id="69" value="70 / 70" style="text;html=1;align=center;verticalAlign=middle;whiteSpace=wrap;rounded=0;fontSize=18;strokeColor=#000000;fontColor=#000000;" vertex="1" parent="1">
                    <mxGeometry x="510" y="-110" width="110" height="50" as="geometry"/>
                </mxCell>
                <mxCell id="70" value="" style="ellipse;whiteSpace=wrap;html=1;strokeColor=#B09500;fontSize=18;fillOpacity=10;fillColor=#e3c800;rotation=-45;fontColor=#000000;" vertex="1" parent="1">
                    <mxGeometry x="100" y="-110" width="740" height="370" as="geometry"/>
                </mxCell>
            </root>
        </mxGraphModel>
    </diagram>
</mxfile>